<?xml version="1.0" encoding="utf-8"?>
<!-- Generator: Adobe Illustrator 18.0.0, SVG Export Plug-In . SVG Version: 6.00 Build 0)  -->
<!DOCTYPE svg PUBLIC "-//W3C//DTD SVG 1.1//EN" "http://www.w3.org/Graphics/SVG/1.1/DTD/svg11.dtd">
<svg version="1.1"
	 id="svg2" xmlns:cc="http://creativecommons.org/ns#" xmlns:dc="http://purl.org/dc/elements/1.1/" xmlns:inkscape="http://www.inkscape.org/namespaces/inkscape" xmlns:sodipodi="http://sodipodi.sourceforge.net/DTD/sodipodi-0.dtd" xmlns:svg="http://www.w3.org/2000/svg" xmlns:rdf="http://www.w3.org/1999/02/22-rdf-syntax-ns#"
	 xmlns="http://www.w3.org/2000/svg" xmlns:xlink="http://www.w3.org/1999/xlink" x="0px" y="0px" viewBox="0 0 512 512"
	 enable-background="new 0 0 512 512" xml:space="preserve">
<g id="layer1" transform="translate(0,-540.3622)">
	<g id="layer1-5" transform="translate(-573.14286,170.28574)">
	</g>
	<path id="path2992" fill="#FFE62E" d="M86,611.4c-7,0-13.5,3.7-17.2,9.7l-30,50c-1.9,3.1-2.8,6.7-2.8,10.3v280c0,11,9,20,20,20h400
		c11,0,20-9,20-20v-280c0-11-9-20-20-20H267.3l-24.2-40.3c-3.6-6-10.1-9.7-17.2-9.7H86z M97.3,651.4h117.4l24.2,40.3
		c3.6,6,10.1,9.7,17.2,9.7h180v240H76V686.9L97.3,651.4z"/>
</g>
</svg>
