<?xml version="1.0" encoding="utf-8"?>
<!-- Generator: Adobe Illustrator 18.0.0, SVG Export Plug-In . SVG Version: 6.00 Build 0)  -->
<!DOCTYPE svg PUBLIC "-//W3C//DTD SVG 1.1//EN" "http://www.w3.org/Graphics/SVG/1.1/DTD/svg11.dtd">
<svg version="1.1"
	 id="svg2" xmlns:cc="http://creativecommons.org/ns#" xmlns:dc="http://purl.org/dc/elements/1.1/" xmlns:inkscape="http://www.inkscape.org/namespaces/inkscape" xmlns:sodipodi="http://sodipodi.sourceforge.net/DTD/sodipodi-0.dtd" xmlns:svg="http://www.w3.org/2000/svg" xmlns:rdf="http://www.w3.org/1999/02/22-rdf-syntax-ns#"
	 xmlns="http://www.w3.org/2000/svg" xmlns:xlink="http://www.w3.org/1999/xlink" x="0px" y="0px" viewBox="0 0 800 800"
	 enable-background="new 0 0 800 800" xml:space="preserve">
<g id="layer1" transform="translate(0,-540.3622)">
	<g id="layer1-5" transform="translate(-573.14286,170.28574)">
	</g>
	<path id="path2992" fill="#BBBBBB" d="M134.4,651.4c-10.9,0-21.1,5.8-26.9,15.2l-46.9,78.1c-3,4.8-4.4,10.5-4.4,16.1v437.5
		c0,17.2,14.1,31.3,31.3,31.3h625c17.2,0,31.3-14.1,31.3-31.3V760.7c0-17.2-14.1-31.3-31.3-31.3H417.7l-37.8-63
		c-5.6-9.4-15.8-15.2-26.9-15.2H134.4z M152,713.9h183.4l37.8,63c5.6,9.4,15.8,15.2,26.9,15.2h281.3v375H118.8V769.3L152,713.9z"/>
</g>
</svg>
